<svg width="352" height="248" viewBox="0 0 352 248" fill="none" xmlns="http://www.w3.org/2000/svg">
<path d="M137.424 186.194C137.424 199.487 129.655 209.846 116.361 209.846C102.723 209.846 95.299 199.833 95.299 186.194C95.299 172.382 103.241 162.369 116.361 162.369C129.655 162.369 137.424 172.9 137.424 186.194ZM150.717 186.194C150.717 166.167 138.978 150.802 118.26 150.802C109.628 150.802 100.824 154.6 96.3348 162.024V151.838H83.214V248H96.3348V210.709C100.478 217.96 108.938 221.413 117.57 221.413C139.15 221.413 150.717 205.53 150.717 186.194ZM310.205 187.575L334.72 220.377H351.121L319.7 178.598L348.531 151.838H331.44L301.573 179.288V123.179H288.279V220.377H301.573V195.517L310.205 187.575ZM214.549 186.194C214.549 199.142 207.47 209.846 193.486 209.846C179.848 209.846 172.424 199.833 172.424 186.194C172.424 172.728 180.02 162.369 193.486 162.369C206.089 162.369 214.549 171.692 214.549 186.194ZM213.513 151.838V160.988C208.679 154.6 200.047 150.802 191.933 150.802C171.733 150.802 159.13 165.131 159.13 186.194C159.13 206.738 171.215 221.413 192.105 221.413C200.392 221.413 210.06 217.96 213.513 211.054V220.377H226.634V151.838H213.513ZM261.174 154.945C258.239 157.19 255.995 160.47 254.441 165.131V151.838H241.32V220.377H254.441V189.474C254.441 181.187 255.822 174.799 258.239 170.311C260.829 165.649 265.145 163.232 271.015 163.232H281.028V151.838H272.741C267.907 151.838 264.109 152.874 261.174 154.945ZM71.8195 194.481C71.8195 174.799 57.1449 170.311 40.3985 165.649C31.2484 163.578 17.6096 160.815 17.6096 149.593C17.6096 140.271 27.4502 136.645 36.9456 136.645C47.6495 136.645 56.109 142.688 57.3175 153.392H71.1289C70.2657 135.609 56.2816 124.215 37.1183 124.215C20.1992 124.215 3.6255 132.502 3.28022 149.421C3.28022 168.239 17.7822 173.246 34.5286 177.734C42.4702 179.979 57.8354 183.604 57.8354 194.653C57.8354 205.012 46.7863 208.983 36.4277 208.983C23.6521 208.983 15.0199 201.214 14.1567 188.438H0C0.690572 207.256 13.2935 221.413 36.255 221.413C54.3826 221.413 71.8195 213.989 71.8195 194.481Z" fill="#101014"/>
<path d="M190.375 71.1333L235.524 71.1333C237.26 71.1333 237.61 68.7687 236.031 68.0465L190.377 47.2532V1.92769C190.377 0.235865 188.115 -0.319279 187.334 1.1816L168.565 37.3195L147.767 27.7674C145.778 26.9637 144.555 28.5838 145.231 29.9763L157.633 55.5593L112.484 55.5593C110.747 55.5593 110.397 57.9239 111.977 58.646L157.63 79.4393V124.765C157.63 126.457 159.893 127.012 160.674 125.511L179.443 89.373L200.24 98.9252C202.23 99.7288 203.452 98.1088 202.777 96.7163L190.375 71.1333Z" fill="#101014"/>
</svg>
