<svg width="2003" height="550" viewBox="0 0 2003 550" fill="none" xmlns="http://www.w3.org/2000/svg">
<path d="M1140.25 300.472C1140.25 354.141 1108.88 395.962 1055.21 395.962C1000.15 395.962 970.176 355.535 970.176 300.472C970.176 244.711 1002.24 204.285 1055.21 204.285C1108.88 204.285 1140.25 246.802 1140.25 300.472ZM1193.92 300.472C1193.92 219.619 1146.52 157.585 1062.88 157.585C1028.03 157.585 992.48 172.92 974.358 202.891V161.768H921.386V550H974.358V399.447C991.086 428.721 1025.24 442.661 1060.09 442.661C1147.22 442.661 1193.92 378.536 1193.92 300.472ZM1837.81 306.048L1936.78 438.479H2003L1876.14 269.803L1992.54 161.768H1923.54L1802.96 272.592V46.0645H1749.29V438.479H1802.96V338.11L1837.81 306.048ZM1451.62 300.472C1451.62 352.747 1423.04 395.962 1366.59 395.962C1311.52 395.962 1281.55 355.535 1281.55 300.472C1281.55 246.105 1312.22 204.285 1366.59 204.285C1417.47 204.285 1451.62 241.923 1451.62 300.472ZM1447.44 161.768V198.709C1427.92 172.92 1393.07 157.585 1360.31 157.585C1278.76 157.585 1227.88 215.437 1227.88 300.472C1227.88 383.416 1276.67 442.661 1361.01 442.661C1394.47 442.661 1433.5 428.721 1447.44 400.841V438.479H1500.41V161.768H1447.44ZM1639.86 174.314C1628.01 183.375 1618.95 196.618 1612.68 215.437V161.768H1559.7V438.479H1612.68V313.715C1612.68 280.259 1618.25 254.469 1628.01 236.347C1638.46 217.528 1655.89 207.77 1679.59 207.77H1720.01V161.768H1686.56C1667.04 161.768 1651.71 165.95 1639.86 174.314ZM875.383 333.928C875.383 254.469 816.138 236.347 748.528 217.528C711.587 209.164 656.523 198.012 656.523 152.706C656.523 115.068 696.253 100.431 734.588 100.431C777.802 100.431 811.956 124.826 816.835 168.041H872.595C869.11 96.2489 812.653 50.2465 735.285 50.2465C666.978 50.2465 600.066 83.7028 598.672 152.009C598.672 227.983 657.22 248.196 724.83 266.318C756.892 275.38 818.926 290.017 818.926 334.625C818.926 376.445 774.317 392.477 732.497 392.477C680.919 392.477 646.068 361.111 642.583 309.533H585.429C588.217 385.507 639.098 442.661 731.8 442.661C804.986 442.661 875.383 412.69 875.383 333.928Z" fill="#101014"/>
<path d="M313.035 279.197L491.017 279.197C497.863 279.197 499.242 269.876 493.017 267.029L313.046 185.06V6.38263C313.046 -0.286704 304.126 -2.47513 301.048 3.44146L227.06 145.9L145.073 108.245C137.229 105.077 132.412 111.463 135.074 116.953L183.965 217.803L5.98279 217.803C-0.862728 217.803 -2.24234 227.124 3.98311 229.971L183.954 311.94L183.954 490.617C183.954 497.287 192.874 499.475 195.952 493.559L269.94 351.1L351.927 388.755C359.771 391.923 364.588 385.537 361.926 380.047L313.035 279.197Z" fill="url(#paint0_linear_1_5594)"/>
<defs>
<linearGradient id="paint0_linear_1_5594" x1="399.441" y1="130.377" x2="78.975" y2="376.179" gradientUnits="userSpaceOnUse">
<stop stop-color="#FA43BD"/>
<stop offset="1" stop-color="#FFA930"/>
</linearGradient>
</defs>
</svg>
