<svg width="1418" height="1001" viewBox="0 0 1418 1001" fill="none" xmlns="http://www.w3.org/2000/svg">
<path d="M554.817 750.658C554.817 804.328 523.452 846.148 469.782 846.148C414.719 846.148 384.747 805.722 384.747 750.658C384.747 694.898 416.81 654.471 469.782 654.471C523.452 654.471 554.817 696.989 554.817 750.658ZM608.487 750.658C608.487 669.806 561.09 607.772 477.449 607.772C442.599 607.772 407.052 623.106 388.93 653.077V611.954H335.957V1000.19H388.93V849.633C405.658 878.907 439.811 892.848 474.661 892.848C561.787 892.848 608.487 828.723 608.487 750.658ZM1252.38 756.234L1351.35 888.665H1417.57L1290.71 719.99L1407.11 611.954H1338.11L1217.53 722.778V496.251H1163.86V888.665H1217.53V788.297L1252.38 756.234ZM866.191 750.658C866.191 802.934 837.614 846.148 781.156 846.148C726.093 846.148 696.122 805.722 696.122 750.658C696.122 696.292 726.79 654.471 781.156 654.471C832.038 654.471 866.191 692.11 866.191 750.658ZM862.009 611.954V648.895C842.493 623.106 807.643 607.772 774.883 607.772C693.334 607.772 642.452 665.623 642.452 750.658C642.452 833.602 691.243 892.848 775.58 892.848C809.037 892.848 848.069 878.907 862.009 851.027V888.665H914.982V611.954H862.009ZM1054.43 624.5C1042.58 633.561 1033.52 646.804 1027.25 665.623V611.954H974.274V888.665H1027.25V763.901C1027.25 730.445 1032.82 704.656 1042.58 686.534C1053.04 667.714 1070.46 657.956 1094.16 657.956H1134.59V611.954H1101.13C1081.61 611.954 1066.28 616.136 1054.43 624.5ZM289.955 784.115C289.955 704.656 230.709 686.534 163.099 667.714C126.158 659.35 71.0946 648.198 71.0946 602.893C71.0946 565.255 110.824 550.617 149.159 550.617C192.374 550.617 226.527 575.013 231.406 618.227H287.167C283.682 546.435 227.224 500.433 149.856 500.433C81.5497 500.433 14.6371 533.889 13.2431 602.196C13.2431 678.17 71.7916 698.383 139.401 716.505C171.464 725.566 233.497 740.203 233.497 784.812C233.497 826.632 188.889 842.663 147.068 842.663C95.4899 842.663 60.6395 811.298 57.1545 759.719H0C2.78803 835.693 53.6695 892.848 146.371 892.848C219.557 892.848 289.955 862.876 289.955 784.115Z" fill="white"/>
<path d="M768.593 286.128L950.873 286.128C957.884 286.128 959.296 276.582 952.921 273.666L768.604 189.718V6.72668C768.604 -0.103685 759.469 -2.34495 756.316 3.7145L680.542 149.613L596.576 111.048C588.543 107.804 583.609 114.344 586.336 119.966L636.407 223.252L454.127 223.252C447.116 223.252 445.704 232.798 452.079 235.714L636.396 319.662L636.396 502.653C636.396 509.484 645.531 511.725 648.684 505.665L724.458 359.767L808.424 398.332C816.457 401.576 821.391 395.035 818.664 389.414L768.593 286.128Z" fill="url(#paint0_linear_1_5602)"/>
<defs>
<linearGradient id="paint0_linear_1_5602" x1="857.085" y1="133.715" x2="528.882" y2="385.451" gradientUnits="userSpaceOnUse">
<stop stop-color="#FA43BD"/>
<stop offset="1" stop-color="#FFA930"/>
</linearGradient>
</defs>
</svg>
