<svg width="523" height="145" viewBox="0 0 523 145" fill="none" xmlns="http://www.w3.org/2000/svg">
<path d="M297.654 79.235C297.654 93.2199 289.481 104.117 275.496 104.117C261.148 104.117 253.338 93.5832 253.338 79.235C253.338 64.7052 261.693 54.171 275.496 54.171C289.481 54.171 297.654 65.25 297.654 79.235ZM311.639 79.235C311.639 58.1667 299.288 42.0023 277.494 42.0023C268.413 42.0023 259.15 45.998 254.428 53.8078V43.0921H240.624V144.256H254.428V105.025C258.787 112.654 267.686 116.286 276.767 116.286C299.47 116.286 311.639 99.5767 311.639 79.235ZM479.421 80.688L505.212 115.196H522.466L489.411 71.2436L519.742 43.0921H501.761L470.34 71.9701V12.9427H456.355V115.196H470.34V89.0426L479.421 80.688ZM378.79 79.235C378.79 92.8567 371.344 104.117 356.632 104.117C342.284 104.117 334.474 93.5832 334.474 79.235C334.474 65.0684 342.466 54.171 356.632 54.171C369.891 54.171 378.79 63.9787 378.79 79.235ZM377.701 43.0921V52.7181C372.615 45.998 363.534 42.0023 354.998 42.0023C333.748 42.0023 320.489 57.077 320.489 79.235C320.489 100.848 333.203 116.286 355.179 116.286C363.897 116.286 374.068 112.654 377.701 105.389V115.196H391.504V43.0921H377.701ZM427.841 46.3613C424.753 48.7224 422.392 52.1732 420.757 57.077V43.0921H406.954V115.196H420.757V82.6858C420.757 73.9679 422.21 67.2479 424.753 62.5257C427.477 57.6219 432.018 55.0792 438.193 55.0792H448.727V43.0921H440.009C434.924 43.0921 430.928 44.1818 427.841 46.3613ZM228.637 87.9529C228.637 67.2479 213.199 62.5257 195.582 57.6219C185.956 55.4424 171.608 52.5364 171.608 40.731C171.608 30.9234 181.96 27.1093 191.949 27.1093C203.21 27.1093 212.11 33.4661 213.381 44.7267H227.911C227.003 26.0195 212.291 14.0324 192.131 14.0324C174.332 14.0324 156.896 22.7503 156.533 40.5494C156.533 60.3462 171.789 65.6133 189.407 70.3355C197.761 72.6966 213.926 76.5106 213.926 88.1345C213.926 99.0318 202.302 103.209 191.405 103.209C177.964 103.209 168.883 95.0361 167.975 81.5961H153.082C153.809 101.393 167.067 116.286 191.223 116.286C210.293 116.286 228.637 108.476 228.637 87.9529Z" fill="#101014"/>
<path d="M82.1031 73.6913L128.481 73.6913C130.265 73.6913 130.624 71.2624 129.002 70.5206L82.1059 49.1615V2.60261C82.1059 0.864745 79.7816 0.294495 78.9795 1.83621L59.7001 38.9575L38.3363 29.1454C36.2925 28.3199 35.0372 29.984 35.731 31.4144L48.4707 57.6936L2.0929 57.6935C0.30913 57.6935 -0.0503632 60.1224 1.57184 60.8643L48.4679 82.2234L48.4679 128.782C48.4679 130.52 50.7922 131.09 51.5943 129.549L70.8737 92.4273L92.2375 102.239C94.2812 103.065 95.5366 101.401 94.8428 99.9704L82.1031 73.6913Z" fill="#101014"/>
</svg>
