<svg width="842" height="287" viewBox="0 0 842 287" fill="none" xmlns="http://www.w3.org/2000/svg">
<path d="M109.754 207.26C100.273 204.415 92.6886 200.623 87 195.882L95.5328 176.446C101.221 180.713 107.858 184.031 115.917 186.875C123.976 189.72 132.034 191.142 140.093 191.142C150.048 191.142 157.159 189.72 162.374 186.401C167.114 183.083 169.484 178.817 169.484 174.076C169.484 170.284 168.062 166.965 165.218 164.595C162.374 162.225 159.055 160.329 154.789 158.907C150.522 157.484 144.834 156.062 137.723 154.166C127.768 151.796 119.235 149.426 113.073 147.055C106.91 144.685 101.221 140.893 96.955 135.678C92.2146 130.464 90.3182 123.353 90.3182 114.82C90.3182 107.235 92.2145 100.598 96.481 94.4359C100.273 88.2732 106.436 83.5327 114.495 80.2144C122.554 76.422 132.509 75 143.886 75C151.945 75 160.003 75.9482 168.062 78.3184C176.121 80.2146 182.758 83.0588 188.446 86.8512L180.861 106.287C175.173 102.969 169.01 100.125 162.374 98.7024C156.211 96.8062 150.048 95.8582 143.886 95.8582C133.931 95.8582 126.82 97.2804 122.08 100.599C117.339 103.917 114.969 108.183 114.969 113.872C114.969 117.664 116.391 120.983 119.235 123.353C122.079 125.723 125.398 127.619 129.664 129.042C133.931 130.464 139.619 131.886 146.73 133.782C156.685 136.152 164.744 138.523 170.906 140.893C177.069 143.263 182.758 147.055 187.498 152.27C192.239 157.484 194.135 164.121 194.135 172.654C194.135 180.239 192.239 186.875 187.972 192.564C184.18 198.726 178.017 203.467 169.958 206.785C161.9 210.578 151.944 212 140.093 212C129.19 212 119.235 210.104 109.754 207.26Z" fill="white"/>
<path d="M307.432 82.1095C315.965 85.9019 322.602 91.5905 327.342 98.7012C332.083 105.812 334.453 114.345 334.453 124.3C334.453 134.255 332.083 142.314 327.342 149.424C322.602 156.535 316.439 162.224 307.432 166.016C298.899 169.808 288.944 171.705 277.093 171.705H246.754V210.103H222.104V76.4209H277.093C288.47 76.4209 298.899 78.3171 307.432 82.1095ZM300.796 143.736C306.484 138.995 309.328 132.833 309.328 124.3C309.328 115.767 306.484 109.13 300.796 104.864C295.107 100.123 287.048 97.7531 276.145 97.7531H247.228V150.846H276.145C287.048 150.372 295.107 148.002 300.796 143.736Z" fill="white"/>
<path d="M434.476 179.29H367.636L354.362 210.103H328.764L388.968 76.4219H413.144L473.348 210.103H447.276L434.476 179.29ZM426.418 159.38L401.293 101.072L376.168 159.38H426.418Z" fill="white"/>
<path d="M579.065 210.103L552.044 171.231C551.096 171.231 549.2 171.231 546.829 171.231H516.49V210.103H491.84V76.4219H546.829C558.207 76.4219 568.636 78.3181 577.168 82.1105C585.701 85.9029 592.338 91.5915 597.079 98.7022C601.819 105.813 604.189 114.346 604.189 124.301C604.189 134.256 601.819 142.789 597.079 150.374C592.338 157.484 585.227 163.173 576.22 166.491L607.033 210.577L579.065 210.103ZM570.058 104.391C564.369 99.6503 556.31 97.2801 545.407 97.2801H516.49V150.374H545.407C556.31 150.374 564.369 148.003 570.058 143.263C575.746 138.522 578.591 131.886 578.591 123.353C578.591 115.294 575.746 108.657 570.058 104.391Z" fill="white"/>
<path d="M679.082 154.165L657.75 175.971V210.103H633.1V76.4209H657.75V144.684L723.643 76.4209H751.612L695.674 136.151L755.404 210.103H726.487L679.082 154.165Z" fill="white"/>
</svg>
