<svg width="842" height="287" viewBox="0 0 842 287" fill="none" xmlns="http://www.w3.org/2000/svg">
<path d="M109.754 208.26C100.273 205.415 92.6886 201.623 87 196.882L95.5328 177.446C101.221 181.713 107.858 185.031 115.917 187.875C123.976 190.72 132.034 192.142 140.093 192.142C150.048 192.142 157.159 190.72 162.374 187.401C167.114 184.083 169.484 179.817 169.484 175.076C169.484 171.284 168.062 167.965 165.218 165.595C162.374 163.225 159.055 161.329 154.789 159.907C150.522 158.484 144.834 157.062 137.723 155.166C127.768 152.796 119.235 150.426 113.073 148.055C106.91 145.685 101.221 141.893 96.955 136.678C92.2146 131.464 90.3182 124.353 90.3182 115.82C90.3182 108.235 92.2145 101.598 96.481 95.4359C100.273 89.2732 106.436 84.5327 114.495 81.2144C122.554 77.422 132.509 76 143.886 76C151.945 76 160.003 76.9482 168.062 79.3184C176.121 81.2146 182.758 84.0588 188.446 87.8512L180.861 107.287C175.173 103.969 169.01 101.125 162.374 99.7024C156.211 97.8062 150.048 96.8582 143.886 96.8582C133.931 96.8582 126.82 98.2804 122.08 101.599C117.339 104.917 114.969 109.183 114.969 114.872C114.969 118.664 116.391 121.983 119.235 124.353C122.079 126.723 125.398 128.619 129.664 130.042C133.931 131.464 139.619 132.886 146.73 134.782C156.685 137.152 164.744 139.523 170.906 141.893C177.069 144.263 182.758 148.055 187.498 153.27C192.239 158.484 194.135 165.121 194.135 173.654C194.135 181.239 192.239 187.875 187.972 193.564C184.18 199.726 178.017 204.467 169.958 207.785C161.9 211.578 151.944 213 140.093 213C129.19 213 119.235 211.104 109.754 208.26Z" fill="black"/>
<path d="M307.432 83.1095C315.965 86.9019 322.602 92.5905 327.342 99.7012C332.083 106.812 334.453 115.345 334.453 125.3C334.453 135.255 332.083 143.314 327.342 150.424C322.602 157.535 316.439 163.224 307.432 167.016C298.899 170.808 288.944 172.705 277.093 172.705H246.754V211.103H222.104V77.4209H277.093C288.47 77.4209 298.899 79.3171 307.432 83.1095ZM300.796 144.736C306.484 139.995 309.328 133.833 309.328 125.3C309.328 116.767 306.484 110.13 300.796 105.864C295.107 101.123 287.048 98.7531 276.145 98.7531H247.228V151.846H276.145C287.048 151.372 295.107 149.002 300.796 144.736Z" fill="black"/>
<path d="M434.476 180.29H367.636L354.362 211.103H328.764L388.968 77.4219H413.144L473.348 211.103H447.276L434.476 180.29ZM426.418 160.38L401.293 102.072L376.168 160.38H426.418Z" fill="black"/>
<path d="M579.065 211.103L552.044 172.231C551.096 172.231 549.2 172.231 546.829 172.231H516.49V211.103H491.84V77.4219H546.829C558.207 77.4219 568.636 79.3181 577.168 83.1105C585.701 86.9029 592.338 92.5915 597.079 99.7022C601.819 106.813 604.189 115.346 604.189 125.301C604.189 135.256 601.819 143.789 597.079 151.374C592.338 158.484 585.227 164.173 576.22 167.491L607.033 211.577L579.065 211.103ZM570.058 105.391C564.369 100.65 556.31 98.2801 545.407 98.2801H516.49V151.374H545.407C556.31 151.374 564.369 149.003 570.058 144.263C575.746 139.522 578.591 132.886 578.591 124.353C578.591 116.294 575.746 109.657 570.058 105.391Z" fill="black"/>
<path d="M679.082 155.165L657.75 176.971V211.103H633.1V77.4209H657.75V145.684L723.643 77.4209H751.612L695.674 137.151L755.404 211.103H726.487L679.082 155.165Z" fill="black"/>
</svg>
