<svg width="271" height="271" viewBox="0 0 271 271" fill="none" xmlns="http://www.w3.org/2000/svg">
<path d="M170.288 152.005L266.978 152.005C270.697 152.005 271.447 146.941 268.065 145.394L170.293 100.864V3.79555C170.293 0.17237 165.448 -1.01651 163.775 2.19773L123.581 79.5899L79.0405 59.1332C74.7796 57.4122 72.1623 60.8816 73.6088 63.8637L100.169 118.652L3.47857 118.652C-0.240322 118.652 -0.98981 123.716 2.39223 125.262L100.163 169.793L100.163 266.861C100.163 270.484 105.009 271.673 106.681 268.459L146.876 191.066L191.416 211.523C195.677 213.244 198.294 209.775 196.848 206.793L170.288 152.005Z" fill="#101014"/>
</svg>
