<svg width="688" height="688" viewBox="0 0 688 688" fill="none" xmlns="http://www.w3.org/2000/svg">
<path fill-rule="evenodd" clip-rule="evenodd" d="M217.711 203H331.99C401.503 203 454.194 240.363 473.797 294.73H509.395V327.59H481.293C481.843 332.783 482.124 338.073 482.124 343.448V344.255C482.124 350.306 481.769 356.255 481.074 362.081H509.395V394.941H473.119C453 448.552 400.717 485.558 331.99 485.558H217.711V394.941H178V362.081H217.711V327.59H178V294.73H217.711V203ZM249.659 394.941V456.08H331.99C382.796 456.08 420.543 431.593 438.114 394.941H249.659ZM447.901 362.081H249.659V327.59H447.952C448.687 333.018 449.062 338.582 449.062 344.255V345.062C449.062 350.866 448.67 356.548 447.901 362.081ZM331.99 232.429C383.03 232.429 420.89 257.562 438.355 294.73H249.659V232.429H331.99Z" fill="#76BF20"/>
</svg>
